<svg width="2259" height="177" viewBox="0 0 2259 177" fill="none" xmlns="http://www.w3.org/2000/svg">
<path d="M0.922319 174V2.83285H117.764V36.4311H42.2933V71.5337H110.326V105.216H42.2933V174H0.922319ZM154.246 174H109.782L167.534 2.83285H222.612L280.364 174H235.901L195.7 45.9589H194.363L154.246 174ZM148.312 106.636H241.25V138.062H148.312V106.636ZM446.12 64.8475H404.331C403.774 60.5572 402.632 56.6847 400.904 53.2302C399.177 49.7757 396.893 46.8226 394.051 44.371C391.209 41.9194 387.838 40.0528 383.938 38.7713C380.093 37.434 375.831 36.7654 371.151 36.7654C362.849 36.7654 355.689 38.7991 349.671 42.8666C343.709 46.934 339.113 52.8123 335.881 60.5015C332.705 68.1906 331.117 77.4956 331.117 88.4164C331.117 99.783 332.733 109.311 335.964 117C339.252 124.633 343.849 130.4 349.755 134.301C355.717 138.145 362.765 140.067 370.9 140.067C375.469 140.067 379.62 139.482 383.353 138.312C387.142 137.142 390.457 135.443 393.299 133.214C396.196 130.93 398.564 128.172 400.403 124.94C402.297 121.652 403.607 117.947 404.331 113.824L446.12 114.075C445.396 121.652 443.195 129.119 439.517 136.474C435.896 143.828 430.909 150.543 424.557 156.616C418.205 162.633 410.46 167.425 401.322 170.991C392.24 174.557 381.821 176.34 370.064 176.34C354.574 176.34 340.701 172.941 328.442 166.144C316.24 159.29 306.601 149.317 299.525 136.223C292.448 123.129 288.91 107.194 288.91 88.4164C288.91 69.5836 292.504 53.6202 299.692 40.5264C306.879 27.4326 316.602 17.4868 328.86 10.6892C341.118 3.8915 354.853 0.49267 370.064 0.49267C380.428 0.49267 390.011 1.94135 398.815 4.83872C407.618 7.68035 415.363 11.8592 422.049 17.3754C428.736 22.8358 434.168 29.5499 438.347 37.5176C442.526 45.4853 445.117 54.5953 446.12 64.8475ZM469.793 174V2.83285H589.142V36.4311H511.164V71.5337H583.041V105.216H511.164V140.402H589.142V174H469.793ZM615.051 174V2.83285H685.758C698.573 2.83285 709.633 5.14516 718.938 9.7698C728.299 14.3387 735.515 20.9135 740.585 29.4941C745.655 38.0191 748.191 48.132 748.191 59.8328C748.191 71.7009 745.6 81.7859 740.418 90.088C735.236 98.3343 727.881 104.631 718.353 108.977C708.825 113.267 697.542 115.412 684.504 115.412H639.79V82.8167H676.815C683.056 82.8167 688.265 82.0088 692.444 80.393C696.679 78.7214 699.883 76.2141 702.056 72.871C704.229 69.4721 705.315 65.1261 705.315 59.8328C705.315 54.5396 704.229 50.1657 702.056 46.7112C699.883 43.2009 696.679 40.5821 692.444 38.8548C688.21 37.0719 683 36.1804 676.815 36.1804H656.422V174H615.051ZM711.416 95.7713L754.041 174H708.909L667.12 95.7713H711.416ZM770.882 174V2.83285H890.231V36.4311H812.253V71.5337H884.13V105.216H812.253V140.402H890.231V174H770.882ZM1071.51 64.8475H1029.72C1029.16 60.5572 1028.02 56.6847 1026.3 53.2302C1024.57 49.7757 1022.28 46.8226 1019.44 44.371C1016.6 41.9194 1013.23 40.0528 1009.33 38.7713C1005.48 37.434 1001.22 36.7654 996.542 36.7654C988.24 36.7654 981.08 38.7991 975.062 42.8666C969.1 46.934 964.504 52.8123 961.272 60.5015C958.096 68.1906 956.508 77.4956 956.508 88.4164C956.508 99.783 958.124 109.311 961.356 117C964.643 124.633 969.24 130.4 975.146 134.301C981.108 138.145 988.156 140.067 996.291 140.067C1000.86 140.067 1005.01 139.482 1008.74 138.312C1012.53 137.142 1015.85 135.443 1018.69 133.214C1021.59 130.93 1023.96 128.172 1025.79 124.94C1027.69 121.652 1029 117.947 1029.72 113.824L1071.51 114.075C1070.79 121.652 1068.59 129.119 1064.91 136.474C1061.29 143.828 1056.3 150.543 1049.95 156.616C1043.6 162.633 1035.85 167.425 1026.71 170.991C1017.63 174.557 1007.21 176.34 995.455 176.34C979.966 176.34 966.092 172.941 953.834 166.144C941.631 159.29 931.992 149.317 924.916 136.223C917.839 123.129 914.301 107.194 914.301 88.4164C914.301 69.5836 917.895 53.6202 925.083 40.5264C932.271 27.4326 941.993 17.4868 954.251 10.6892C966.51 3.8915 980.244 0.49267 995.455 0.49267C1005.82 0.49267 1015.4 1.94135 1024.21 4.83872C1033.01 7.68035 1040.75 11.8592 1047.44 17.3754C1054.13 22.8358 1059.56 29.5499 1063.74 37.5176C1067.92 45.4853 1070.51 54.5953 1071.51 64.8475ZM1256.74 88.4164C1256.74 107.249 1253.12 123.213 1245.88 136.306C1238.63 149.4 1228.83 159.346 1216.46 166.144C1204.14 172.941 1190.32 176.34 1175 176.34C1159.62 176.34 1145.78 172.913 1133.46 166.06C1121.15 159.207 1111.37 149.261 1104.13 136.223C1096.94 123.129 1093.35 107.194 1093.35 88.4164C1093.35 69.5836 1096.94 53.6202 1104.13 40.5264C1111.37 27.4326 1121.15 17.4868 1133.46 10.6892C1145.78 3.8915 1159.62 0.49267 1175 0.49267C1190.32 0.49267 1204.14 3.8915 1216.46 10.6892C1228.83 17.4868 1238.63 27.4326 1245.88 40.5264C1253.12 53.6202 1256.74 69.5836 1256.74 88.4164ZM1214.45 88.4164C1214.45 77.2727 1212.86 67.8563 1209.69 60.1672C1206.57 52.478 1202.05 46.6554 1196.15 42.6994C1190.3 38.7434 1183.25 36.7654 1175 36.7654C1166.81 36.7654 1159.76 38.7434 1153.86 42.6994C1147.95 46.6554 1143.41 52.478 1140.23 60.1672C1137.11 67.8563 1135.55 77.2727 1135.55 88.4164C1135.55 99.5601 1137.11 108.977 1140.23 116.666C1143.41 124.355 1147.95 130.177 1153.86 134.133C1159.76 138.089 1166.81 140.067 1175 140.067C1183.25 140.067 1190.3 138.089 1196.15 134.133C1202.05 130.177 1206.57 124.355 1209.69 116.666C1212.86 108.977 1214.45 99.5601 1214.45 88.4164ZM1393.22 58.7463C1392.28 55.2361 1390.88 52.1437 1389.04 49.4692C1387.2 46.739 1384.95 44.4267 1382.27 42.5323C1379.6 40.6378 1376.53 39.217 1373.08 38.2698C1369.63 37.2669 1365.84 36.7654 1361.71 36.7654C1353.41 36.7654 1346.22 38.7713 1340.15 42.783C1334.13 46.7947 1329.48 52.6452 1326.19 60.3343C1322.91 67.9677 1321.26 77.2449 1321.26 88.1657C1321.26 99.1422 1322.85 108.503 1326.03 116.248C1329.2 123.993 1333.8 129.899 1339.82 133.966C1345.83 138.034 1353.13 140.067 1361.71 140.067C1369.29 140.067 1375.7 138.842 1380.94 136.39C1386.23 133.883 1390.24 130.345 1392.97 125.776C1395.7 121.207 1397.07 115.83 1397.07 109.645L1404.76 110.565H1363.13V80.393H1436.93V103.043C1436.93 118.365 1433.67 131.487 1427.15 142.408C1420.69 153.328 1411.78 161.714 1400.41 167.565C1389.1 173.415 1376.09 176.34 1361.38 176.34C1345.05 176.34 1330.71 172.802 1318.34 165.726C1305.97 158.65 1296.33 148.565 1289.42 135.471C1282.51 122.321 1279.06 106.72 1279.06 88.6672C1279.06 74.6261 1281.14 62.173 1285.32 51.3079C1289.5 40.3871 1295.33 31.1378 1302.79 23.5601C1310.31 15.9824 1319.01 10.2434 1328.87 6.34311C1338.79 2.44282 1349.46 0.49267 1360.88 0.49267C1370.8 0.49267 1380.02 1.91349 1388.54 4.75514C1397.12 7.59678 1404.7 11.6085 1411.28 16.7903C1417.91 21.9721 1423.28 28.129 1427.41 35.261C1431.53 42.393 1434.09 50.2214 1435.09 58.7463H1393.22ZM1606.99 2.83285V174H1571.89L1503.77 75.2111H1502.69V174H1461.32V2.83285H1496.92L1564.29 101.455H1565.71V2.83285H1606.99ZM1674.38 2.83285V174H1633.01V2.83285H1674.38ZM1694.75 36.4311V2.83285H1839.42V36.4311H1787.52V174H1746.74V36.4311H1694.75ZM1901 2.83285V174H1859.63V2.83285H1901ZM2088.53 88.4164C2088.53 107.249 2084.9 123.213 2077.66 136.306C2070.42 149.4 2060.61 159.346 2048.24 166.144C2035.93 172.941 2022.11 176.34 2006.79 176.34C1991.41 176.34 1977.56 172.913 1965.25 166.06C1952.94 159.207 1943.16 149.261 1935.91 136.223C1928.73 123.129 1925.13 107.194 1925.13 88.4164C1925.13 69.5836 1928.73 53.6202 1935.91 40.5264C1943.16 27.4326 1952.94 17.4868 1965.25 10.6892C1977.56 3.8915 1991.41 0.49267 2006.79 0.49267C2022.11 0.49267 2035.93 3.8915 2048.24 10.6892C2060.61 17.4868 2070.42 27.4326 2077.66 40.5264C2084.9 53.6202 2088.53 69.5836 2088.53 88.4164ZM2046.24 88.4164C2046.24 77.2727 2044.65 67.8563 2041.47 60.1672C2038.35 52.478 2033.84 46.6554 2027.93 42.6994C2022.08 38.7434 2015.03 36.7654 2006.79 36.7654C1998.6 36.7654 1991.55 38.7434 1985.64 42.6994C1979.74 46.6554 1975.19 52.478 1972.02 60.1672C1968.9 67.8563 1967.34 77.2727 1967.34 88.4164C1967.34 99.5601 1968.9 108.977 1972.02 116.666C1975.19 124.355 1979.74 130.177 1985.64 134.133C1991.55 138.089 1998.6 140.067 2006.79 140.067C2015.03 140.067 2022.08 138.089 2027.93 134.133C2033.84 130.177 2038.35 124.355 2041.47 116.666C2044.65 108.977 2046.24 99.5601 2046.24 88.4164ZM2258.36 2.83285V174H2223.25L2155.14 75.2111H2154.05V174H2112.68V2.83285H2148.28L2215.65 101.455H2217.07V2.83285H2258.36Z" fill="black"/>
</svg>
